<?xml version="1.0" standalone="no"?><!DOCTYPE svg PUBLIC "-//W3C//DTD SVG 1.1//EN" "http://www.w3.org/Graphics/SVG/1.1/DTD/svg11.dtd"><svg t="1776583022899" class="icon" viewBox="0 0 1024 1024" version="1.1" xmlns="http://www.w3.org/2000/svg" p-id="11119" xmlns:xlink="http://www.w3.org/1999/xlink" width="200" height="200"><path d="M512 512m-512 0a512 512 0 1 0 1024 0 512 512 0 1 0-1024 0Z" fill="#E0F7FF" p-id="11120"></path><path d="M744.746667 333.653333a42.666667 42.666667 0 0 1 0 25.813334l-143.872 453.802666a42.666667 42.666667 0 0 1-76.501334 10.282667l-116.778666-180.48-180.48-116.778667a42.666667 42.666667 0 0 1 10.24-76.501333L691.2 305.92a42.666667 42.666667 0 0 1 53.546667 27.733333z m-156.16 158.592l-30.122667-30.208-120.704 120.704 30.165333 30.165334 120.704-120.661334z" fill="#00B7F4" p-id="11121"></path></svg>