<?xml version="1.0" standalone="no"?><!DOCTYPE svg PUBLIC "-//W3C//DTD SVG 1.1//EN" "http://www.w3.org/Graphics/SVG/1.1/DTD/svg11.dtd"><svg t="1776584539528" class="icon" viewBox="0 0 1024 1024" version="1.1" xmlns="http://www.w3.org/2000/svg" p-id="31034" xmlns:xlink="http://www.w3.org/1999/xlink" width="200" height="200"><path d="M514.2528 509.5936m-450.816 0a450.816 450.816 0 1 0 901.632 0 450.816 450.816 0 1 0-901.632 0Z" fill="#FFBC42" p-id="31035"></path><path d="M690.8416 233.1136H343.9616c-42.1376 0-76.2368 34.1504-76.2368 76.2368v434.2784c0 38.656 42.24 62.464 75.3152 42.496l166.4512-100.4544c3.1232-1.8944 7.0144-1.8944 10.1376-0.0512l172.5952 101.8368c33.1264 19.5072 74.9056-4.352 74.9056-42.752V309.3504c-0.0512-42.0864-34.2016-76.2368-76.288-76.2368z m-87.1424 266.8544h-55.9104v55.9104a30.4128 30.4128 0 0 1-60.8256 0V499.968H431.0528a30.4128 30.4128 0 0 1 0-60.8256h55.9104V383.232a30.4128 30.4128 0 0 1 60.8256 0v55.9104h55.9104a30.4128 30.4128 0 0 1 0 60.8256z" fill="#FFFFFF" p-id="31036"></path></svg>